<svg width="134" height="12" viewBox="0 0 134 12" fill="none" xmlns="http://www.w3.org/2000/svg">
<path d="M133.546 6.54697C133.849 6.24489 133.849 5.75511 133.546 5.45303L128.624 0.530262C128.322 0.228177 127.832 0.228177 127.53 0.530262C127.228 0.832347 127.228 1.32212 127.53 1.62421L131.906 6L127.53 10.3758C127.228 10.6779 127.228 11.1677 127.53 11.4697C127.832 11.7718 128.322 11.7718 128.624 11.4697L133.546 6.54697ZM80.3438 6.77354H132.999V5.22646H80.3438V6.77354Z" fill="black"/>
<g opacity="0.2">
<path d="M0.453537 6.54697C0.151451 6.24489 0.151451 5.75511 0.453537 5.45303L5.3763 0.530262C5.67839 0.228177 6.16816 0.228177 6.47025 0.530262C6.77234 0.832347 6.77234 1.32212 6.47025 1.62421L2.09446 6L6.47025 10.3758C6.77234 10.6779 6.77234 11.1677 6.47025 11.4697C6.16816 11.7718 5.67839 11.7718 5.3763 11.4697L0.453537 6.54697ZM53.6562 6.77354H1.00051V5.22646H53.6562V6.77354Z" fill="black"/>
</g>
</svg>
